<svg xmlns="http://www.w3.org/2000/svg" xmlns:xlink="http://www.w3.org/1999/xlink" width="500" zoomAndPan="magnify" viewBox="0 0 375 374.999991" height="500" preserveAspectRatio="xMidYMid meet" version="1.0"><defs><g/><clipPath id="bb92d838a2"><path d="M 0.441406 0.601562 L 346.761719 0.601562 L 346.761719 136.921875 L 0.441406 136.921875 Z M 0.441406 0.601562 " clip-rule="nonzero"/></clipPath><clipPath id="186bd9cb2b"><rect x="0" width="347" y="0" height="137"/></clipPath><clipPath id="1ed4bc6262"><path d="M 123.078125 28.46875 L 206.71875 28.46875 L 206.71875 112.113281 L 123.078125 112.113281 Z M 123.078125 28.46875 " clip-rule="nonzero"/></clipPath><clipPath id="344d954807"><path d="M 141 102 L 189 102 L 189 112.113281 L 141 112.113281 Z M 141 102 " clip-rule="nonzero"/></clipPath><clipPath id="c0a1aed086"><path d="M 123.078125 60 L 206.71875 60 L 206.71875 83 L 123.078125 83 Z M 123.078125 60 " clip-rule="nonzero"/></clipPath><clipPath id="c1afd4fa6c"><path d="M 123.078125 69 L 206.71875 69 L 206.71875 83 L 123.078125 83 Z M 123.078125 69 " clip-rule="nonzero"/></clipPath><clipPath id="9a47634343"><path d="M 123.078125 41 L 205 41 L 205 63 L 123.078125 63 Z M 123.078125 41 " clip-rule="nonzero"/></clipPath><clipPath id="08d02e06ce"><path d="M 131 28.46875 L 191 28.46875 L 191 46 L 131 46 Z M 131 28.46875 " clip-rule="nonzero"/></clipPath><clipPath id="8205e43ea1"><path d="M 196 65 L 206.71875 65 L 206.71875 75 L 196 75 Z M 196 65 " clip-rule="nonzero"/></clipPath><clipPath id="061d010c37"><rect x="0" width="347" y="0" height="137"/></clipPath></defs><g transform="matrix(1, 0, 0, 1, 13, 117)"><g clip-path="url(#061d010c37)"><g clip-path="url(#bb92d838a2)"><g transform="matrix(1, 0, 0, 1, -0.000000000000001776, 0)"><g clip-path="url(#186bd9cb2b)"><g fill="#ffffff" fill-opacity="1"><g transform="translate(0.631092, 104.061928)"><g><path d="M 23.203125 -32.390625 C 23.203125 -33.867188 22.675781 -35.289062 21.625 -36.65625 C 20.570312 -38.019531 19.222656 -39.425781 17.578125 -40.875 C 15.941406 -42.332031 14.179688 -43.910156 12.296875 -45.609375 C 10.410156 -47.304688 8.644531 -49.253906 7 -51.453125 C 5.363281 -53.648438 4.019531 -56.203125 2.96875 -59.109375 C 1.914062 -62.015625 1.390625 -65.359375 1.390625 -69.140625 C 1.390625 -74.328125 2.410156 -78.671875 4.453125 -82.171875 C 6.492188 -85.671875 9.140625 -88.316406 12.390625 -90.109375 C 15.640625 -91.898438 19.054688 -92.796875 22.640625 -92.796875 L 51.125 -92.796875 L 51.125 -64.953125 L 43.703125 -64.953125 C 42.460938 -64.953125 41.160156 -64.890625 39.796875 -64.765625 C 38.441406 -64.648438 37.300781 -64.25 36.375 -63.5625 C 35.445312 -62.882812 34.984375 -61.679688 34.984375 -59.953125 C 34.984375 -58.460938 35.476562 -57.175781 36.46875 -56.09375 C 37.457031 -55.007812 38.738281 -53.957031 40.3125 -52.9375 C 41.894531 -51.914062 43.566406 -50.753906 45.328125 -49.453125 C 47.085938 -48.160156 48.753906 -46.582031 50.328125 -44.71875 C 51.910156 -42.863281 53.195312 -40.546875 54.1875 -37.765625 C 55.175781 -34.984375 55.671875 -31.550781 55.671875 -27.46875 C 55.671875 -22.144531 54.648438 -17.410156 52.609375 -13.265625 C 50.566406 -9.117188 47.660156 -5.867188 43.890625 -3.515625 C 40.117188 -1.171875 35.632812 0 30.4375 0 L 2.6875 0 L 2.6875 -27.84375 L 13.359375 -27.84375 C 16.640625 -27.84375 19.097656 -28.164062 20.734375 -28.8125 C 22.378906 -29.457031 23.203125 -30.648438 23.203125 -32.390625 Z M 23.203125 -32.390625 "/></g></g></g><g fill="#ffffff" fill-opacity="1"><g transform="translate(56.112598, 104.061928)"><g><path d="M 0 -69.59375 L 30.0625 -69.59375 L 35.171875 -29.96875 L 40.1875 -69.59375 L 70.25 -69.59375 L 52.34375 0 L 17.90625 0 Z M 0 -69.59375 "/></g></g></g><g fill="#ffffff" fill-opacity="1"><g transform="translate(124.79416, 104.061928)"><g/></g></g><g fill="#ffffff" fill-opacity="1"><g transform="translate(152.905763, 104.061928)"><g/></g></g><g fill="#ffffff" fill-opacity="1"><g transform="translate(181.017366, 104.061928)"><g/></g></g><g fill="#ffffff" fill-opacity="1"><g transform="translate(209.12931, 104.061928)"><g><path d="M 1.390625 0 L 1.390625 -42.875 C 1.390625 -49 2.703125 -54.023438 5.328125 -57.953125 C 7.960938 -61.878906 11.441406 -64.800781 15.765625 -66.71875 C 20.097656 -68.632812 24.800781 -69.59375 29.875 -69.59375 L 40.734375 -69.59375 L 40.734375 -41.9375 L 32.015625 -41.9375 C 30.648438 -41.9375 29.84375 -41.410156 29.59375 -40.359375 C 29.351562 -39.316406 29.234375 -37.988281 29.234375 -36.375 L 29.234375 0 Z M 1.390625 0 "/></g></g></g><g fill="#ffffff" fill-opacity="1"><g transform="translate(249.67335, 104.061928)"><g><path d="M 29.234375 0 L 1.390625 0 L 1.390625 -69.59375 L 29.234375 -69.59375 Z M 29.234375 -74.046875 L 1.390625 -74.046875 L 1.390625 -101.890625 L 29.234375 -101.890625 Z M 29.234375 -74.046875 "/></g></g></g><g fill="#ffffff" fill-opacity="1"><g transform="translate(278.712747, 104.061928)"><g><path d="M 0.921875 -18.9375 C 0.921875 -21.21875 1.273438 -23.488281 1.984375 -25.75 C 2.703125 -28.007812 3.847656 -30.066406 5.421875 -31.921875 C 7.003906 -33.773438 9.125 -35.257812 11.78125 -36.375 C 14.445312 -37.488281 17.726562 -38.046875 21.625 -38.046875 L 36.09375 -38.046875 C 36.09375 -39.585938 35.164062 -40.59375 33.3125 -41.0625 C 31.457031 -41.53125 28.675781 -41.765625 24.96875 -41.765625 L 6.6875 -41.765625 L 13.453125 -69.59375 L 36.09375 -69.59375 C 41.601562 -69.59375 46.429688 -68.757812 50.578125 -67.09375 C 54.722656 -65.425781 57.953125 -62.796875 60.265625 -59.203125 C 62.585938 -55.617188 63.75 -50.882812 63.75 -45 L 63.75 0 L 20.515625 0 C 15.679688 0 11.828125 -0.925781 8.953125 -2.78125 C 6.078125 -4.632812 4.019531 -7.015625 2.78125 -9.921875 C 1.539062 -12.835938 0.921875 -15.84375 0.921875 -18.9375 Z M 29.609375 -25.609375 C 29.609375 -24.742188 29.929688 -24.140625 30.578125 -23.796875 C 31.222656 -23.460938 31.945312 -23.296875 32.75 -23.296875 L 36.09375 -23.296875 L 36.09375 -28.03125 L 32.75 -28.03125 C 31.882812 -28.03125 31.144531 -27.84375 30.53125 -27.46875 C 29.914062 -27.09375 29.609375 -26.472656 29.609375 -25.609375 Z M 29.609375 -25.609375 "/></g></g></g></g></g></g><g clip-path="url(#1ed4bc6262)"><path fill="#f8ac44" d="M 206.71875 70.292969 C 206.71875 71.664062 206.652344 73.03125 206.519531 74.394531 C 206.382812 75.757812 206.183594 77.109375 205.917969 78.453125 C 205.648438 79.796875 205.316406 81.125 204.917969 82.433594 C 204.523438 83.746094 204.0625 85.03125 203.535156 86.296875 C 203.011719 87.5625 202.429688 88.800781 201.78125 90.007812 C 201.136719 91.214844 200.433594 92.390625 199.671875 93.527344 C 198.910156 94.667969 198.097656 95.765625 197.226562 96.824219 C 196.359375 97.882812 195.441406 98.898438 194.472656 99.867188 C 193.503906 100.832031 192.488281 101.753906 191.429688 102.621094 C 190.371094 103.488281 189.273438 104.304688 188.132812 105.066406 C 186.996094 105.828125 185.824219 106.53125 184.613281 107.175781 C 183.40625 107.820312 182.171875 108.40625 180.90625 108.929688 C 179.640625 109.453125 178.351562 109.914062 177.039062 110.3125 C 175.730469 110.710938 174.402344 111.042969 173.058594 111.308594 C 171.714844 111.578125 170.363281 111.777344 169 111.914062 C 167.636719 112.046875 166.269531 112.113281 164.902344 112.113281 C 163.53125 112.113281 162.164062 112.046875 160.800781 111.914062 C 159.4375 111.777344 158.085938 111.578125 156.742188 111.308594 C 155.398438 111.042969 154.074219 110.710938 152.761719 110.3125 C 151.449219 109.914062 150.164062 109.453125 148.898438 108.929688 C 147.632812 108.40625 146.394531 107.820312 145.1875 107.175781 C 143.980469 106.53125 142.804688 105.828125 141.667969 105.066406 C 140.527344 104.304688 139.429688 103.488281 138.371094 102.621094 C 137.3125 101.753906 136.300781 100.832031 135.332031 99.863281 C 134.363281 98.898438 133.441406 97.882812 132.574219 96.824219 C 131.707031 95.765625 130.890625 94.667969 130.128906 93.527344 C 129.367188 92.390625 128.664062 91.214844 128.019531 90.007812 C 127.375 88.800781 126.789062 87.5625 126.265625 86.296875 C 125.742188 85.03125 125.28125 83.746094 124.882812 82.433594 C 124.484375 81.125 124.152344 79.796875 123.886719 78.453125 C 123.617188 77.109375 123.417969 75.757812 123.285156 74.394531 C 123.148438 73.03125 123.082031 71.664062 123.082031 70.292969 C 123.082031 68.925781 123.148438 67.558594 123.285156 66.195312 C 123.417969 64.832031 123.617188 63.480469 123.886719 62.136719 C 124.152344 60.792969 124.484375 59.464844 124.882812 58.15625 C 125.28125 56.84375 125.742188 55.554688 126.265625 54.292969 C 126.789062 53.027344 127.375 51.789062 128.019531 50.582031 C 128.664062 49.375 129.367188 48.199219 130.128906 47.0625 C 130.890625 45.921875 131.707031 44.824219 132.574219 43.765625 C 133.441406 42.707031 134.363281 41.691406 135.332031 40.722656 C 136.300781 39.753906 137.3125 38.835938 138.371094 37.96875 C 139.429688 37.097656 140.527344 36.285156 141.667969 35.523438 C 142.804688 34.761719 143.980469 34.058594 145.1875 33.414062 C 146.394531 32.769531 147.632812 32.183594 148.898438 31.660156 C 150.164062 31.132812 151.449219 30.671875 152.761719 30.277344 C 154.074219 29.878906 155.398438 29.546875 156.742188 29.277344 C 158.085938 29.011719 159.4375 28.8125 160.800781 28.675781 C 162.164062 28.542969 163.53125 28.476562 164.902344 28.476562 C 166.269531 28.476562 167.636719 28.542969 169 28.675781 C 170.363281 28.8125 171.714844 29.011719 173.058594 29.277344 C 174.402344 29.546875 175.730469 29.878906 177.039062 30.277344 C 178.351562 30.671875 179.640625 31.132812 180.90625 31.660156 C 182.171875 32.183594 183.40625 32.769531 184.613281 33.414062 C 185.824219 34.058594 186.996094 34.761719 188.132812 35.523438 C 189.273438 36.285156 190.371094 37.097656 191.429688 37.96875 C 192.488281 38.835938 193.503906 39.753906 194.472656 40.722656 C 195.441406 41.691406 196.359375 42.707031 197.226562 43.765625 C 198.097656 44.824219 198.910156 45.921875 199.671875 47.0625 C 200.433594 48.199219 201.136719 49.375 201.78125 50.582031 C 202.429688 51.789062 203.011719 53.027344 203.535156 54.292969 C 204.0625 55.554688 204.523438 56.84375 204.917969 58.15625 C 205.316406 59.464844 205.648438 60.792969 205.917969 62.136719 C 206.183594 63.480469 206.382812 64.832031 206.519531 66.195312 C 206.652344 67.558594 206.71875 68.925781 206.71875 70.292969 Z M 206.71875 70.292969 " fill-opacity="1" fill-rule="nonzero"/></g><path fill="#d3653a" d="M 125.738281 84.984375 C 127.773438 84.304688 129.878906 83.835938 131.652344 83.984375 C 136.324219 84.390625 141.984375 84.582031 145.757812 87.144531 C 147.230469 88.152344 151.691406 91.0625 156.496094 90.285156 C 160.210938 89.675781 162.410156 86.050781 166.988281 85.417969 C 171.664062 84.765625 173.242188 88.808594 181.234375 86.882812 C 183.132812 86.421875 187.515625 81.980469 189.066406 81.566406 C 195.445312 79.851562 200.019531 80.195312 205.425781 80.636719 C 204.003906 86.234375 201.445312 91.382812 198.011719 95.820312 C 194.945312 95.949219 192.253906 95.984375 190.765625 96.058594 C 185.542969 96.296875 182.941406 101.269531 177.886719 101.941406 C 172.625 102.636719 170 99.582031 165.515625 99.042969 C 162.011719 98.617188 159.601562 101.101562 156.226562 101.578125 C 152.597656 102.085938 149.296875 100.675781 145.722656 100.609375 C 143.617188 100.570312 140.964844 101.527344 138.332031 102.578125 C 132.722656 97.957031 128.339844 91.910156 125.738281 84.984375 Z M 125.738281 84.984375 " fill-opacity="1" fill-rule="evenodd"/><g clip-path="url(#344d954807)"><path fill="#e9855e" d="M 141.386719 104.875 C 149.265625 99.207031 160.492188 107.777344 171.1875 108.085938 C 173.933594 108.164062 176.941406 106.925781 179.554688 106.203125 C 183.234375 105.183594 185.980469 104.816406 188.582031 104.753906 C 181.847656 109.394531 173.6875 112.109375 164.902344 112.109375 C 156.183594 112.113281 148.089844 109.441406 141.386719 104.875 Z M 141.386719 104.875 " fill-opacity="1" fill-rule="evenodd"/></g><g clip-path="url(#c0a1aed086)"><path fill="#d3653a" d="M 205.582031 60.566406 C 206.328125 63.6875 206.71875 66.941406 206.71875 70.289062 C 206.71875 73.078125 206.449219 75.804688 205.925781 78.4375 C 204.804688 78.703125 203.671875 78.847656 202.503906 78.660156 C 199.605469 78.183594 196.078125 76.316406 193.085938 76.890625 C 190.96875 77.300781 189.101562 78.8125 187.167969 79.703125 C 180.972656 82.554688 173.628906 83.4375 167.089844 81.609375 C 160.042969 79.644531 157.742188 73.046875 149.027344 73.96875 C 145.191406 74.378906 142.816406 77.171875 139.378906 78.261719 C 134.4375 79.832031 129.296875 79.351562 124.269531 80.222656 C 123.492188 77.035156 123.082031 73.710938 123.082031 70.289062 C 123.082031 68.226562 123.230469 66.207031 123.519531 64.226562 C 124.402344 64.355469 125.246094 64.542969 126.027344 64.796875 C 127.363281 65.226562 128.539062 66.066406 130 66.027344 C 133.417969 65.933594 138.199219 61.765625 141.601562 61.996094 C 145.109375 62.234375 145.972656 68.039062 149.519531 67.582031 C 153.90625 67.019531 156.695312 63.113281 161.386719 63.4375 C 166.335938 63.785156 169.6875 67.273438 175.339844 66.796875 C 179.183594 66.472656 182.464844 63.675781 186.238281 63.472656 C 189.925781 63.273438 193.339844 66.050781 196.878906 65.488281 C 199.664062 65.039062 202.433594 62.246094 205.582031 60.566406 Z M 205.582031 60.566406 " fill-opacity="1" fill-rule="evenodd"/></g><g clip-path="url(#c1afd4fa6c)"><path fill="#e9855e" d="M 123.078125 70.492188 C 123.84375 70.605469 124.613281 70.738281 125.378906 70.902344 C 127.804688 71.425781 130.492188 72.488281 132.988281 72.5 C 135.777344 72.511719 138.304688 71.210938 140.996094 70.710938 C 142.921875 70.351562 144.777344 70.585938 146.707031 70.5 C 148.996094 70.398438 151.195312 69.792969 153.46875 69.597656 C 160.027344 69.046875 162.613281 72.058594 168.160156 74.410156 C 170.453125 75.390625 173.0625 75.710938 175.535156 75.746094 C 178.234375 75.792969 180.171875 73.941406 182.679688 73.417969 C 185.667969 72.796875 188.972656 73.152344 192.023438 72.851562 C 193.730469 72.6875 195.570312 72.644531 197.128906 73.460938 C 199.085938 74.484375 200.03125 76.046875 202.472656 75.929688 C 203.058594 75.902344 204.941406 75.238281 206.464844 74.820312 C 206.332031 76.039062 206.152344 77.25 205.914062 78.4375 C 204.792969 78.703125 203.660156 78.847656 202.492188 78.660156 C 199.59375 78.183594 196.066406 76.316406 193.074219 76.890625 C 190.957031 77.300781 189.089844 78.8125 187.15625 79.703125 C 180.960938 82.554688 173.621094 83.4375 167.078125 81.609375 C 160.035156 79.644531 157.730469 73.046875 149.015625 73.96875 C 145.183594 74.378906 142.804688 77.171875 139.371094 78.261719 C 134.425781 79.832031 129.285156 79.351562 124.257812 80.222656 C 123.507812 77.105469 123.097656 73.847656 123.078125 70.492188 Z M 123.078125 70.492188 " fill-opacity="1" fill-rule="evenodd"/></g><g clip-path="url(#9a47634343)"><path fill="#d3653a" d="M 128.039062 50.535156 C 129.839844 51.609375 131.664062 52.464844 133.363281 52.449219 C 138.292969 52.410156 140.585938 47.996094 145.050781 47.007812 C 148.027344 46.347656 152.078125 48.035156 154.769531 46.554688 C 157.921875 44.820312 159.15625 41.796875 163.117188 41.527344 C 167.132812 41.25 169.304688 44.28125 172.601562 45.746094 C 175.941406 47.234375 180.046875 47.101562 183.558594 46.554688 C 186.957031 46.027344 191.539062 44.089844 196.125 42.488281 C 199.566406 46.347656 202.304688 50.859375 204.132812 55.800781 C 203.808594 55.929688 203.464844 56.019531 203.199219 56.210938 C 200.332031 58.347656 196.199219 59 188.847656 58.085938 C 185.953125 57.726562 178.574219 59.863281 175.6875 60.050781 C 171.492188 60.328125 168.234375 52.289062 163.949219 52.023438 C 160.054688 51.78125 156.453125 58.101562 152.945312 59.539062 C 143.1875 63.53125 136.992188 56.660156 125.699219 62.339844 C 125.242188 62.570312 124.511719 62.714844 123.71875 62.933594 C 124.507812 58.53125 125.984375 54.355469 128.039062 50.535156 Z M 128.039062 50.535156 " fill-opacity="1" fill-rule="evenodd"/></g><g clip-path="url(#08d02e06ce)"><path fill="#d3653a" d="M 131.789062 44.757812 C 139.441406 34.851562 151.429688 28.46875 164.902344 28.46875 C 174.367188 28.46875 183.101562 31.621094 190.113281 36.929688 C 188.640625 37.421875 187.179688 37.703125 185.914062 37.746094 C 179.761719 37.949219 174.546875 34.109375 168.4375 34.28125 C 165.398438 34.363281 153.160156 33.675781 152.535156 36.570312 C 151.613281 40.828125 139.777344 46.691406 131.789062 44.757812 Z M 131.789062 44.757812 " fill-opacity="1" fill-rule="evenodd"/></g><path fill="#d3653a" d="M 157.359375 80.78125 C 155.4375 79.648438 152.957031 78.851562 150.761719 79.730469 C 147.597656 80.996094 146.109375 83.992188 149.53125 86.007812 C 151.761719 87.324219 154.695312 87.464844 157.066406 86.472656 C 160.8125 84.902344 160.132812 82.089844 156.796875 80.390625 Z M 157.359375 80.78125 " fill-opacity="1" fill-rule="evenodd"/><g clip-path="url(#8205e43ea1)"><path fill="#ffcd88" d="M 206.644531 72.863281 C 203.996094 74.179688 200.371094 74.554688 198.289062 73.316406 C 196.144531 72.039062 196.207031 69.167969 198.128906 67.753906 C 200.234375 66.207031 203.582031 64.96875 206.425781 65.292969 C 206.621094 66.929688 206.726562 68.597656 206.726562 70.289062 C 206.71875 71.15625 206.699219 72.011719 206.644531 72.863281 Z M 206.644531 72.863281 " fill-opacity="1" fill-rule="evenodd"/></g><path fill="#ffcd88" d="M 144.4375 51.652344 C 144.25 50.640625 142.777344 50.847656 141.386719 51.234375 C 140.570312 51.460938 139.796875 51.796875 139.039062 52.167969 C 138.578125 52.386719 137.957031 52.71875 137.507812 52.957031 C 135.949219 53.792969 134.824219 55.601562 137.335938 56.019531 C 140.042969 56.472656 144.835938 53.835938 144.4375 51.652344 Z M 144.4375 51.652344 " fill-opacity="1" fill-rule="evenodd"/><path fill="#d3653a" d="M 179.824219 42.59375 C 180.460938 41.785156 179.332031 40.820312 178.121094 40.027344 C 177.414062 39.5625 176.648438 39.210938 175.867188 38.890625 C 175.398438 38.695312 174.734375 38.441406 174.261719 38.265625 C 172.601562 37.648438 170.496094 38.007812 171.851562 40.160156 C 173.304688 42.488281 178.453125 44.332031 179.824219 42.59375 Z M 179.824219 42.59375 " fill-opacity="1" fill-rule="evenodd"/><path fill="#ffcd88" d="M 139.445312 95.3125 C 140.484375 95.203125 138.804688 91.898438 137.53125 91.210938 C 136.785156 90.816406 135.988281 90.523438 135.1875 90.269531 C 134.699219 90.113281 134.023438 89.917969 133.53125 89.78125 C 131.828125 89.304688 129.761719 89.84375 131.292969 91.875 C 132.945312 94.074219 138.410156 95.421875 139.445312 95.3125 Z M 139.445312 95.3125 " fill-opacity="1" fill-rule="evenodd"/></g></g></svg>